	.include "asm/macros.inc"

	.section .rodata
	.align 1


gbs_profoakspokemontalk_Ch1:
	gbs_switch 0
	tempo 164
	volume 7, 7
	stereo_panning FALSE, TRUE
	vibrato 6, 2, 5
	duty_cycle 1
	note_type 12, 9, 4
	rest 8
	octave 3
	note B_, 1
	octave 4
	note Cs, 1
	note Ds, 1
	note E_, 1
	note Cs, 1
	note Ds, 1
	note E_, 1
	note Fs, 1
gbs_profoakspokemontalk_Ch1.mainloop:
	note Ds, 6
	note Cs, 1
	octave 3
	note B_, 1
	note Fs, 1
	note Gs, 1
	note Fs, 1
	rest 1
	note Fs, 1
	rest 1
	note A_, 1
	note As, 1
	note B_, 2
	note Fs, 1
	note Gs, 1
	note Fs, 1
	rest 1
	note Fs, 1
	rest 1
	note Fs, 1
	note Gs, 1
	note Fs, 1
	rest 1
	note As, 4
	octave 4
	note Ds, 6
	note Cs, 1
	octave 3
	note B_, 1
	note Gs, 1
	note B_, 1
	note Ds, 1
	rest 1
	note Ds, 1
	rest 1
	note As, 1
	note B_, 1
	note Fs, 1
	note As, 1
	note Ds, 1
	rest 1
	note Ds, 1
	rest 1
	note Fs, 1
	note As, 1
	note Ds, 1
	rest 1
	note Ds, 1
	rest 1
	note As, 4
	note E_, 2
	octave 2
	note B_, 1
	octave 3
	note E_, 1
	note Gs, 2
	note E_, 1
	note Gs, 1
	note B_, 1
	octave 4
	note Cs, 1
	octave 3
	note B_, 1
	octave 4
	note Cs, 1
	octave 3
	note B_, 4
	note Fs, 2
	note Ds, 1
	note Fs, 1
	note B_, 2
	note Fs, 1
	note B_, 1
	octave 4
	note Ds, 1
	note E_, 1
	note Ds, 1
	note E_, 1
	note Ds, 4
	octave 3
	note As, 2
	octave 4
	note Cs, 2
	note E_, 2
	note Fs, 2
	note Cs, 2
	note E_, 2
	note Fs, 2
	note E_, 2
	note Cs, 2
	octave 3
	note As, 1
	rest 1
	note B_, 1
	rest 1
	octave 4
	note Cs, 1
	rest 1
	note Ds, 1
	rest 1
	note E_, 1
	rest 1
	note F_, 1
	rest 1
	note Fs, 1
	rest 1
	sound_loop 0, gbs_profoakspokemontalk_Ch1.mainloop

gbs_profoakspokemontalk_Ch2:
	gbs_switch 1
	vibrato 8, 2, 4
	duty_cycle 3
	note_type 12, 10, 7
	stereo_panning TRUE, TRUE
	octave 3
	note B_, 1
	octave 4
	note Cs, 1
	note Ds, 1
	note E_, 1
	note Cs, 1
	note Ds, 1
	note E_, 1
	note Fs, 1
	note Ds, 1
	note E_, 1
	note Fs, 1
	note Gs, 1
	note E_, 1
	note Fs, 1
	note Gs, 1
	note As, 1
gbs_profoakspokemontalk_Ch2.mainloop:
	note B_, 6
	note As, 1
	note Gs, 1
	note Fs, 6
	note F_, 1
	note Fs, 1
	note Gs, 4
	note Fs, 8
	note Fs, 4
	note Gs, 6
	note Fs, 1
	note E_, 1
	note Ds, 6
	note D_, 1
	note Ds, 1
	note E_, 4
	note Ds, 8
	note Ds, 4
	note E_, 6
	octave 3
	note B_, 1
	octave 4
	note E_, 1
	note Gs, 8
	note Fs, 6
	note Ds, 1
	note Fs, 1
	note B_, 8
	note As, 4
	note B_, 2
	note As, 2
	note Gs, 4
	note As, 2
	note Gs, 2
	note Fs, 2
	note Cs, 1
	rest 1
	note Ds, 1
	rest 1
	note E_, 1
	rest 1
	note Fs, 1
	rest 1
	note G_, 1
	rest 1
	note Gs, 1
	rest 1
	note As, 1
	rest 1
	sound_loop 0, gbs_profoakspokemontalk_Ch2.mainloop

gbs_profoakspokemontalk_Ch3:
	gbs_switch 2
	vibrato 6, 3, 8
	note_type 12, 2, 5
	stereo_panning TRUE, FALSE
	rest 8
	octave 3
	note Fs, 1
	note E_, 1
	note Ds, 1
	note Cs, 1
	note E_, 1
	note Ds, 1
	note Cs, 1
	octave 2
	note As, 1
gbs_profoakspokemontalk_Ch3.mainloop:
	note B_, 6
	octave 3
	note Ds, 1
	note Fs, 1
	note B_, 6
	note Ds, 1
	note Cs, 1
	octave 2
	note B_, 4
	octave 3
	note B_, 8
	octave 4
	note Ds, 4
	octave 3
	note Gs, 6
	note Ds, 1
	note Gs, 1
	octave 2
	note Gs, 6
	octave 3
	note Ds, 1
	note Gs, 1
	note Ds, 6
	note Fs, 2
	note As, 2
	note Gs, 2
	note Fs, 2
	note Ds, 2
	note E_, 2
	rest 4
	note E_, 1
	note E_, 1
	note E_, 1
	rest 1
	note E_, 1
	rest 1
	note B_, 4
	note Fs, 2
	rest 4
	note Fs, 1
	note Fs, 1
	octave 2
	note B_, 1
	rest 1
	note B_, 1
	rest 1
	octave 3
	note B_, 4
	note Fs, 2
	octave 4
	note Fs, 2
	octave 3
	note E_, 2
	octave 4
	note E_, 2
	octave 3
	note Cs, 2
	octave 4
	note Cs, 2
	octave 2
	note As, 2
	octave 3
	note As, 2
	octave 2
	note Fs, 2
	octave 3
	note As, 1
	rest 1
	note Gs, 1
	rest 1
	note Fs, 1
	rest 1
	note E_, 1
	rest 1
	note Ds, 1
	rest 1
	note Cs, 1
	rest 1
	octave 2
	note As, 1
	rest 1
	sound_loop 0, gbs_profoakspokemontalk_Ch3.mainloop

	.align 4
	.global gbs_profoakspokemontalk_Header
gbs_profoakspokemontalk_Header:
	.byte 3	@ NumTrks
	.byte 0	@ NumBlks
	.byte 0	@ Priority
	.byte 0	@ Reverb

	.int voicegroup000

	.int gbs_profoakspokemontalk_Ch1
	.int gbs_profoakspokemontalk_Ch2
	.int gbs_profoakspokemontalk_Ch3
