	.include "asm/macros.inc"

	.section .rodata
	.align 1


gbs_postcredits_Ch1:
	gbs_switch 0
	tempo 271
	volume 7, 7
	transpose 0, 3
	duty_cycle 2
	note_type 12, 9, 3
	rest 8
gbs_postcredits_Ch1.mainloop:
	octave 3
	note C_, 2
	note E_, 2
	note G_, 2
	octave 4
	note C_, 2
	note E_, 2
	volume_envelope 7, 3
	note E_, 2
	volume_envelope 5, 3
	note E_, 2
	volume_envelope 4, 3
	note E_, 2
	volume_envelope 9, 3
	octave 2
	note B_, 2
	octave 3
	note D_, 2
	note G_, 2
	note B_, 2
	octave 4
	note D_, 2
	volume_envelope 7, 3
	note D_, 2
	volume_envelope 5, 3
	note D_, 2
	volume_envelope 4, 3
	note D_, 2
	volume_envelope 9, 3
	octave 2
	note As, 2
	octave 3
	note D_, 2
	note G_, 2
	note As, 2
	octave 4
	note D_, 2
	volume_envelope 7, 3
	note D_, 2
	volume_envelope 5, 3
	note D_, 2
	volume_envelope 4, 3
	note D_, 2
	volume_envelope 9, 3
	octave 2
	note A_, 2
	octave 3
	note C_, 2
	note F_, 2
	note A_, 2
	octave 4
	note C_, 2
	volume_envelope 7, 3
	note C_, 2
	volume_envelope 5, 3
	note C_, 2
	volume_envelope 4, 3
	note C_, 2
	volume_envelope 9, 3
	octave 2
	note Gs, 2
	octave 3
	note C_, 2
	note F_, 2
	note Gs, 2
	octave 4
	note C_, 2
	volume_envelope 7, 3
	note C_, 2
	volume_envelope 5, 3
	note C_, 2
	volume_envelope 4, 3
	note C_, 2
	volume_envelope 9, 3
	octave 2
	note G_, 2
	octave 3
	note C_, 2
	note E_, 2
	note G_, 2
	octave 4
	note C_, 2
	volume_envelope 7, 3
	note C_, 2
	volume_envelope 6, 3
	note C_, 2
	volume_envelope 4, 3
	note C_, 2
	volume_envelope 9, 3
	octave 2
	note Fs, 2
	note A_, 2
	octave 3
	note D_, 2
	note Fs, 2
	note A_, 2
	volume_envelope 7, 3
	note A_, 2
	volume_envelope 6, 3
	note A_, 2
	volume_envelope 4, 3
	note A_, 2
	volume_envelope 9, 3
	octave 2
	note G_, 2
	octave 3
	note C_, 2
	note D_, 2
	note G_, 2
	note G_, 2
	volume_envelope 7, 3
	note G_, 2
	volume_envelope 9, 3
	note D_, 2
	octave 2
	note G_, 2
	sound_loop 0, gbs_postcredits_Ch1.mainloop

gbs_postcredits_Ch2:
	gbs_switch 1
	transpose 0, 3
	duty_cycle 2
	note_type 12, 10, 3
	octave 5
	note E_, 2
	volume_envelope 7, 3
	note E_, 2
	volume_envelope 10, 3
	note F_, 2
	volume_envelope 7, 3
	note F_, 2
gbs_postcredits_Ch2.mainloop:
	volume_envelope 10, 3
	note G_, 2
	volume_envelope 7, 3
	note G_, 2
	volume_envelope 5, 3
	note G_, 2
	volume_envelope 4, 3
	note G_, 2
	volume_envelope 9, 3
	octave 6
	note D_, 2
	note C_, 2
	octave 5
	note B_, 2
	octave 6
	note C_, 2
	octave 5
	note G_, 2
	volume_envelope 7, 3
	note G_, 2
	volume_envelope 5, 3
	note G_, 2
	volume_envelope 4, 3
	note G_, 2
	volume_envelope 3, 3
	note G_, 2
	volume_envelope 10, 3
	note E_, 2
	volume_envelope 7, 3
	note E_, 2
	volume_envelope 10, 3
	note F_, 2
	note G_, 2
	volume_envelope 7, 3
	note G_, 2
	volume_envelope 5, 3
	note G_, 2
	volume_envelope 4, 3
	note G_, 2
	volume_envelope 3, 3
	note G_, 2
	volume_envelope 10, 3
	note A_, 2
	volume_envelope 7, 3
	note A_, 2
	volume_envelope 10, 3
	note E_, 2
	note G_, 2
	volume_envelope 7, 3
	note G_, 2
	volume_envelope 5, 3
	note G_, 2
	volume_envelope 10, 3
	note F_, 2
	volume_envelope 7, 3
	note F_, 2
	volume_envelope 5, 3
	note F_, 2
	volume_envelope 10, 3
	note D_, 2
	note E_, 2
	note F_, 2
	volume_envelope 7, 3
	note F_, 2
	volume_envelope 5, 3
	note F_, 2
	volume_envelope 4, 3
	note F_, 2
	volume_envelope 3, 3
	note F_, 2
	volume_envelope 10, 3
	note G_, 2
	volume_envelope 7, 3
	note G_, 2
	volume_envelope 10, 3
	note F_, 2
	note E_, 2
	note Ds, 2
	note E_, 2
	note B_, 2
	volume_envelope 7, 3
	note B_, 2
	volume_envelope 5, 3
	note B_, 2
	volume_envelope 10, 3
	note A_, 2
	volume_envelope 7, 3
	note A_, 2
	volume_envelope 10, 3
	note D_, 2
	volume_envelope 7, 3
	note D_, 2
	volume_envelope 5, 3
	note D_, 2
	volume_envelope 4, 3
	note D_, 2
	volume_envelope 3, 3
	note D_, 2
	note D_, 2
	volume_envelope 2, 3
	note D_, 2
	note D_, 2
	volume_envelope 10, 3
	note G_, 2
	volume_envelope 7, 3
	octave 4
	note G_, 2
	volume_envelope 10, 3
	octave 5
	note D_, 2
	note G_, 2
	volume_envelope 7, 3
	note G_, 2
	volume_envelope 5, 3
	note G_, 2
	volume_envelope 10, 3
	note E_, 2
	note F_, 2
	sound_loop 0, gbs_postcredits_Ch2.mainloop

	.align 4
	.global gbs_postcredits_Header
gbs_postcredits_Header:
	.byte 2	@ NumTrks
	.byte 0	@ NumBlks
	.byte 0	@ Priority
	.byte 0	@ Reverb

	.int voicegroup000

	.int gbs_postcredits_Ch1
	.int gbs_postcredits_Ch2
