	.include "asm/macros.inc"

	.section .rodata
	.align 1

gbs_violetcity_Ch1:
	gbs_switch 0
	tempo 164
	volume 7, 7
	vibrato 18, 2, 5
	duty_cycle 2
	note_type 12, 9, 5
	rest 16
	stereo_panning TRUE, FALSE
	octave 2
	note E_, 1
	note Gs, 1
	note B_, 1
	stereo_panning TRUE, TRUE
	octave 3
	note Ds, 1
	note Gs, 1
	rest 1
	note As, 4
	note Gs, 2
	note Fs, 2
	note Cs, 2
	stereo_panning FALSE, TRUE
	octave 2
	note Ds, 1
	note Fs, 1
	note As, 1
	stereo_panning TRUE, TRUE
	octave 3
	note Cs, 1
	note Fs, 1
	rest 1
	note Ds, 4
	note Gs, 2
	note Ds, 2
	octave 2
	note Gs, 2
	note Cs, 1
	note E_, 1
	note Gs, 1
	note B_, 1
	octave 3
	note Gs, 1
	rest 1
	octave 2
	note B_, 4
	note_type 6, 9, 1
	octave 3
	note Cs, 2
	note F_, 2
	note Cs, 2
	note F_, 2
	note Gs, 2
	note B_, 2
	volume_envelope 10, 4
	octave 2
	note B_, 8
	rest 4
	octave 3
	note Cs, 12
	rest 8
gbs_violetcity_Ch1.mainloop:
	note_type 6, 9, 5
	rest 4
	octave 2
	note B_, 2
	octave 3
	note Cs, 2
	note Ds, 4
	note Ds, 2
	note E_, 2
	note Ds, 2
	rest 2
	note Fs, 2
	rest 2
	note Gs, 2
	rest 2
	note B_, 2
	rest 2
	stereo_panning TRUE, FALSE
	octave 4
	note Cs, 2
	octave 3
	note Gs, 2
	note E_, 2
	octave 4
	note Cs, 2
	stereo_panning TRUE, TRUE
	note C_, 2
	octave 3
	note Gs, 2
	note E_, 2
	octave 4
	note C_, 2
	stereo_panning FALSE, TRUE
	octave 3
	note B_, 2
	rest 2
	note B_, 2
	rest 2
	note As, 8
	stereo_panning TRUE, TRUE
	rest 4
	note Cs, 2
	note E_, 2
	note As, 4
	note As, 2
	octave 4
	note Cs, 2
	octave 3
	note As, 2
	rest 2
	note Fs, 2
	rest 2
	note E_, 2
	rest 2
	note Cs, 2
	rest 2
	stereo_panning FALSE, TRUE
	note Ds, 8
	stereo_panning TRUE, TRUE
	note E_, 8
	stereo_panning TRUE, FALSE
	note F_, 2
	rest 2
	note F_, 2
	rest 2
	note Fs, 2
	rest 2
	note G_, 4
	stereo_panning TRUE, TRUE
	note Gs, 2
	note Ds, 1
	rest 1
	octave 2
	note B_, 1
	rest 1
	octave 3
	note Ds, 1
	rest 1
	note B_, 4
	note Gs, 2
	note Gs, 2
	note As, 2
	rest 2
	note As, 2
	rest 2
	note Ds, 4
	note Fs, 2
	rest 2
	note_type 12, 9, 5
	rest 8
	octave 4
	note F_, 3
	duty_cycle 1
	note_type 6, 7, 5
	note Gs, 1
	note B_, 1
	octave 5
	note Ds, 8
	note_type 12, 9, 3
	duty_cycle 2
	rest 16
	note_type 6, 9, 1
	stereo_panning TRUE, FALSE
	octave 3
	note E_, 2
	octave 2
	note B_, 2
	note Gs, 2
	octave 3
	note E_, 2
	stereo_panning FALSE, TRUE
	octave 2
	note B_, 2
	note Gs, 2
	note B_, 2
	octave 3
	note E_, 2
	volume_envelope 10, 4
	stereo_panning TRUE, TRUE
	note Ds, 8
	rest 8
	duty_cycle 3
	volume_envelope 8, 4
	rest 4
	note G_, 2
	note A_, 2
	note B_, 4
	octave 4
	note D_, 4
	note Cs, 4
	note_type 8, 8, 4
	octave 3
	note B_, 1
	octave 4
	note Cs, 1
	octave 3
	note B_, 1
	note A_, 3
	note_type 12, 8, 4
	note Fs, 1
	rest 1
	note Fs, 2
	note Cs, 1
	rest 1
	note Fs, 2
	note D_, 4
	note E_, 4
	note Fs, 2
	note B_, 1
	rest 1
	note B_, 1
	octave 4
	note Cs, 1
	note D_, 2
	note Fs, 2
	note E_, 2
	note_type 8, 8, 4
	note D_, 1
	note E_, 1
	note D_, 1
	note Cs, 3
	note_type 12, 8, 4
	octave 3
	note B_, 1
	rest 1
	note A_, 2
	note Fs, 1
	rest 1
	note A_, 2
	octave 4
	note E_, 4
	note D_, 4
	note Cs, 2
	note Gs, 1
	note E_, 1
	octave 3
	note B_, 1
	octave 4
	note E_, 1
	note Gs, 1
	rest 1
	note Gs, 1
	note As, 1
	note B_, 4
	rest 4
	note Gs, 1
	note F_, 1
	octave 3
	note B_, 1
	octave 4
	note F_, 1
	note Gs, 1
	rest 1
	note Gs, 1
	note As, 1
	note B_, 4
	rest 4
	note Cs, 1
	octave 3
	note B_, 1
	note Fs, 1
	octave 4
	note Cs, 1
	octave 3
	note B_, 1
	note Fs, 1
	octave 4
	note Cs, 1
	octave 3
	note B_, 1
	note Fs, 1
	note Cs, 1
	note Fs, 1
	note As, 1
	octave 4
	note Cs, 1
	note Fs, 1
	note As, 1
	octave 5
	note Cs, 1
	duty_cycle 2
	octave 4
	note Cs, 6
	note C_, 1
	octave 3
	note B_, 1
	octave 4
	note Cs, 4
	rest 4
	sound_loop 0, gbs_violetcity_Ch1.mainloop

gbs_violetcity_Ch2:
	gbs_switch 1
	vibrato 18, 2, 4
	duty_cycle 2
	note_type 12, 12, 7
	rest 16
	octave 3
	note Gs, 1
	rest 1
	note As, 1
	rest 1
	note B_, 1
	rest 1
	octave 4
	note Ds, 4
	note Cs, 2
	octave 3
	note As, 2
	note Gs, 2
	note Fs, 1
	rest 1
	note Gs, 1
	rest 1
	note As, 1
	rest 1
	octave 4
	note Cs, 4
	octave 3
	note B_, 2
	note As, 2
	note B_, 2
	note Gs, 1
	rest 1
	note As, 1
	rest 1
	note B_, 1
	rest 1
	note Gs, 4
	note As, 2
	note B_, 2
	octave 4
	note Cs, 2
	note Ds, 2
	octave 3
	note Fs, 2
	octave 4
	note Ds, 1
	rest 1
	note Cs, 6
	rest 2
	note Ds, 1
	note E_, 1
gbs_violetcity_Ch2.mainloop:
	volume_envelope 11, 7
	note Fs, 4
	rest 2
	note Fs, 1
	note Gs, 1
	note Fs, 1
	rest 1
	note E_, 1
	rest 1
	note Ds, 1
	rest 1
	note Fs, 1
	rest 1
	note E_, 14
	note Cs, 1
	note Ds, 1
	note E_, 4
	rest 2
	note E_, 1
	note Fs, 1
	note E_, 1
	rest 1
	note Ds, 1
	rest 1
	note Cs, 1
	rest 1
	note E_, 1
	rest 1
	note Ds, 12
	rest 2
	octave 3
	note B_, 1
	octave 4
	note Cs, 1
	note Ds, 4
	rest 2
	note Ds, 1
	note E_, 1
	note Ds, 1
	rest 1
	note Cs, 1
	rest 1
	octave 3
	note B_, 2
	octave 4
	note Cs, 1
	rest 1
	note Ds, 4
	note Gs, 4
	note B_, 3
	rest 3
	note Cs, 1
	note Ds, 1
	note E_, 2
	octave 3
	note Gs, 2
	note B_, 2
	octave 4
	note E_, 2
	note Ds, 1
	octave 3
	note Fs, 1
	note B_, 1
	octave 4
	note Ds, 1
	note Cs, 1
	octave 3
	note E_, 1
	note As, 1
	octave 4
	note Cs, 1
	octave 3
	note B_, 12
	rest 4
	volume_envelope 10, 7
	duty_cycle 3
	rest 2
	note B_, 1
	octave 4
	note Cs, 1
	note D_, 2
	note Fs, 2
	note E_, 2
	note_type 8, 10, 7
	note D_, 1
	note E_, 1
	note D_, 1
	note Cs, 3
	note_type 12, 10, 7
	octave 3
	note B_, 1
	rest 1
	note A_, 2
	note Fs, 1
	rest 1
	note A_, 2
	octave 4
	note E_, 4
	note D_, 4
	note Cs, 2
	rest 2
	note G_, 1
	note A_, 1
	note B_, 2
	octave 5
	note D_, 2
	note Cs, 2
	note_type 8, 10, 7
	octave 4
	note B_, 1
	octave 5
	note Cs, 1
	octave 4
	note B_, 1
	note A_, 3
	note_type 12, 10, 7
	note G_, 1
	rest 1
	note Fs, 2
	note Cs, 1
	rest 1
	note Fs, 2
	vibrato 0, 0, 0
	volume_envelope 8, 7
	octave 5
	note E_, 4
	note Fs, 4
	note D_, 1
	note E_, 1
	note Fs, 12
	rest 2
	note D_, 1
	note E_, 1
	note Fs, 12
	rest 2
	octave 4
	note As, 1
	note B_, 1
	octave 5
	note Cs, 11
	rest 5
	vibrato 18, 2, 4
	volume_envelope 10, 7
	duty_cycle 2
	octave 4
	note As, 6
	note A_, 1
	note Gs, 1
	note Fs, 4
	rest 2
	note Ds, 1
	note E_, 1
	sound_loop 0, gbs_violetcity_Ch2.mainloop

gbs_violetcity_Ch3:
	gbs_switch 2
	note_type 12, 2, 5
	rest 16
	rest 6
	octave 4
	note E_, 4
	rest 6
	rest 6
	octave 3
	note Gs, 4
	rest 6
	rest 6
	note F_, 4
	rest 6
	octave 2
	note Fs, 4
	octave 3
	note Cs, 1
	rest 1
	note As, 4
	note A_, 1
	note Gs, 1
	note Fs, 2
	octave 2
	note As, 2
gbs_violetcity_Ch3.mainloop:
	note_type 12, 2, 5
	note B_, 1
	rest 5
	note B_, 1
	note B_, 1
	rest 2
	note B_, 1
	rest 1
	octave 3
	note Fs, 2
	octave 2
	note Fs, 1
	rest 1
	octave 3
	note Cs, 1
	rest 5
	note Cs, 1
	note Cs, 1
	rest 2
	note Cs, 1
	rest 1
	note Gs, 2
	octave 2
	note Gs, 1
	rest 1
	note Fs, 1
	rest 5
	note Fs, 1
	note Fs, 1
	note Fs, 1
	rest 1
	note Fs, 1
	rest 1
	octave 3
	note Fs, 2
	note Cs, 1
	rest 1
	octave 2
	note B_, 1
	rest 5
	note B_, 1
	note B_, 1
	rest 2
	note B_, 1
	rest 1
	octave 3
	note B_, 4
	note Gs, 1
	rest 5
	note Gs, 1
	note Gs, 1
	note G_, 1
	rest 1
	note G_, 1
	rest 1
	note Fs, 2
	note Fs, 1
	rest 1
	note_type 6, 2, 5
	octave 3
	note Cs, 2
	note F_, 2
	note Gs, 2
	note B_, 2
	octave 4
	note Cs, 2
	note F_, 2
	note Gs, 2
	note B_, 2
	octave 4
	note Cs, 6
	note_type 12, 2, 5
	rest 5
	note_type 6, 2, 5
	octave 2
	note E_, 2
	rest 10
	note E_, 2
	note E_, 2
	note Fs, 2
	rest 2
	note Fs, 2
	rest 2
	octave 3
	note Cs, 4
	note C_, 4
	octave 2
	note B_, 2
	rest 10
	note B_, 2
	note B_, 2
	rest 4
	note B_, 2
	rest 2
	note A_, 8
	sound_call gbs_violetcity_Ch3.sub1
	note Fs, 2
	rest 10
	note B_, 2
	note B_, 2
	note B_, 2
	rest 2
	note As, 8
	note A_, 2
	rest 2
	sound_call gbs_violetcity_Ch3.sub1
	note Fs, 2
	rest 10
	note B_, 2
	note B_, 2
	note B_, 2
	rest 2
	note As, 8
	note A_, 2
	rest 2
	octave 3
	note E_, 2
	rest 10
	note E_, 2
	note E_, 2
	rest 4
	note E_, 2
	rest 2
	note B_, 4
	note Gs, 2
	note Fs, 2
	note F_, 2
	rest 10
	note F_, 2
	note F_, 2
	rest 4
	note F_, 2
	rest 2
	octave 4
	note Cs, 4
	octave 3
	note As, 2
	note Gs, 2
	note Fs, 2
	rest 10
	note Fs, 2
	note Fs, 2
	octave 2
	note Fs, 2
	rest 2
	note Fs, 2
	rest 2
	octave 3
	note Fs, 4
	octave 2
	note Fs, 2
	note Gs, 2
	octave 3
	note Fs, 12
	note Gs, 2
	note A_, 2
	note As, 8
	rest 4
	octave 2
	note As, 4
	sound_loop 0, gbs_violetcity_Ch3.mainloop

gbs_violetcity_Ch3.sub1:
	note G_, 2
	rest 10
	note G_, 2
	note G_, 2
	note A_, 2
	rest 2
	note A_, 2
	rest 2
	octave 3
	note E_, 4
	octave 2
	note A_, 4
	sound_ret

gbs_violetcity_Ch4:
	gbs_switch 3
	toggle_noise 3
	drum_speed 12
	drum_note 4, 2
	drum_note 3, 2
	drum_note 4, 1
	drum_note 4, 1
	drum_note 3, 2
	drum_note 3, 4
	drum_note 7, 4
	sound_call gbs_violetcity_Ch4.sub1
	sound_call gbs_violetcity_Ch4.sub1
	sound_call gbs_violetcity_Ch4.sub1
	drum_note 3, 2
	drum_note 4, 1
	drum_note 4, 1
	drum_note 3, 2
	drum_note 1, 8
	drum_note 4, 2
gbs_violetcity_Ch4.mainloop:
	sound_call gbs_violetcity_Ch4.sub2
	sound_call gbs_violetcity_Ch4.sub2
	sound_call gbs_violetcity_Ch4.sub2
	sound_call gbs_violetcity_Ch4.sub2
	sound_call gbs_violetcity_Ch4.sub2
	sound_call gbs_violetcity_Ch4.sub2
	sound_call gbs_violetcity_Ch4.sub2
	sound_call gbs_violetcity_Ch4.sub2
	sound_call gbs_violetcity_Ch4.sub2
	sound_call gbs_violetcity_Ch4.sub2
	sound_call gbs_violetcity_Ch4.sub2
	sound_call gbs_violetcity_Ch4.sub2
	sound_call gbs_violetcity_Ch4.sub2
	sound_call gbs_violetcity_Ch4.sub2
	sound_call gbs_violetcity_Ch4.sub2
	sound_call gbs_violetcity_Ch4.sub2
	sound_loop 0, gbs_violetcity_Ch4.mainloop

gbs_violetcity_Ch4.sub1:
	drum_note 3, 1
	drum_note 3, 1
	drum_note 4, 1
	drum_note 4, 1
	drum_note 3, 2
	drum_note 8, 2
	drum_note 8, 1
	drum_note 8, 1
	drum_note 7, 2
	drum_note 8, 1
	drum_note 8, 1
	drum_note 8, 1
	drum_note 8, 1
	sound_ret

gbs_violetcity_Ch4.sub2:
	drum_note 4, 2
	drum_note 8, 1
	drum_note 8, 1
	drum_note 8, 1
	rest 1
	drum_note 4, 1
	drum_note 4, 1
	rest 2
	drum_note 4, 2
	drum_note 3, 2
	drum_note 4, 2
	sound_ret

	.align 4
	.global gbs_violetcity_Header
gbs_violetcity_Header:
	.byte 4	@ NumTrks
	.byte 0	@ NumBlks
	.byte 0	@ Priority
	.byte 0	@ Reverb

	.int voicegroup000

	.int gbs_violetcity_Ch1
	.int gbs_violetcity_Ch2
	.int gbs_violetcity_Ch3
	.int gbs_violetcity_Ch4
