	.include "asm/macros.inc"

	.section .rodata
	.align 1


gbs_kantotrainerbattle_Ch1:
	gbs_switch 0
	tempo 114
	volume 7, 7
	transpose 1, 11
	note_type 12, 11, 3
	vibrato 18, 2, 4
	duty_cycle 1
	rest 1
	octave 4
	note A_, 1
	note Gs, 1
	note G_, 1
	note Gs, 1
	note G_, 1
	note Fs, 1
	note F_, 1
	note Fs, 1
	note F_, 1
	note E_, 1
	note Ds, 1
	note E_, 1
	note Ds, 1
	note D_, 1
	note Cs, 1
	note D_, 1
	note Cs, 1
	note C_, 1
	octave 3
	note B_, 1
	octave 4
	note C_, 1
	octave 3
	note B_, 1
	note As, 1
	note A_, 1
	note As, 1
	note A_, 1
	note Gs, 1
	note G_, 1
	note Gs, 1
	note G_, 1
	note Fs, 1
	note G_, 1
	duty_cycle 2
	volume_envelope 11, 1
	octave 4
	note Ds, 2
	octave 2
	note C_, 1
	rest 1
	note C_, 1
	rest 1
	octave 4
	note C_, 2
	octave 2
	note C_, 1
	rest 1
	note C_, 1
	rest 1
	octave 4
	note Ds, 2
	rest 2
	octave 3
	note As, 2
	octave 4
	note C_, 2
	rest 2
	note Ds, 2
	rest 2
	octave 3
	note Ds, 1
	rest 1
	note F_, 1
	rest 1
	note Fs, 1
	rest 1
	octave 4
	note C_, 2
	octave 2
	note C_, 1
	rest 1
	note C_, 1
	rest 1
	octave 4
	note C_, 2
	octave 2
	note C_, 1
	rest 1
	note C_, 1
	rest 1
	octave 4
	note Ds, 2
	rest 2
	octave 3
	note As, 2
	octave 4
	note C_, 2
	rest 2
	note Ds, 2
	rest 2
	note Ds, 1
	rest 1
	note F_, 1
	rest 1
	note G_, 1
	rest 1
	volume_envelope 11, 3
	note Ds, 2
	rest 4
	note F_, 2
	rest 4
	note Fs, 2
	rest 2
	note Ds, 2
	note F_, 2
	rest 2
	note Fs, 2
	rest 2
	note Ds, 2
	note F_, 2
	note Fs, 2
gbs_kantotrainerbattle_Ch1.mainloop:
	note_type 12, 11, 7
	note Ds, 4
	rest 2
	note C_, 10
	rest 4
	note Ds, 2
	note C_, 2
	octave 3
	note G_, 1
	octave 4
	note C_, 1
	note Ds, 1
	rest 1
	note C_, 1
	rest 1
	note Ds, 1
	rest 1
	note Cs, 8
	note F_, 8
	note Gs, 8
	octave 5
	note Cs, 4
	note Cs, 1
	octave 4
	note Gs, 1
	note F_, 1
	note Cs, 1
	note Ds, 4
	rest 2
	note C_, 10
	rest 4
	note Ds, 2
	note C_, 2
	octave 3
	note G_, 1
	octave 4
	note C_, 1
	note Ds, 1
	rest 1
	note D_, 1
	rest 1
	note F_, 1
	rest 1
	note Ds, 6
	note D_, 6
	note C_, 2
	rest 2
	rest 2
	note D_, 2
	rest 4
	note F_, 2
	rest 2
	note Gs, 2
	note G_, 1
	note Fs, 1
	octave 3
	note Gs, 1
	note F_, 1
	note C_, 1
	note Gs, 1
	octave 4
	note C_, 1
	rest 1
	note F_, 1
	rest 1
	note C_, 1
	octave 3
	note Gs, 1
	note F_, 1
	rest 5
	octave 4
	note Ds, 8
	note D_, 4
	octave 3
	note F_, 1
	note A_, 1
	octave 4
	note C_, 1
	note Ds, 1
	note D_, 4
	octave 3
	note D_, 4
	octave 4
	note F_, 4
	octave 3
	note D_, 4
	rest 4
	note D_, 4
	rest 4
	note D_, 4
	note Gs, 1
	note F_, 1
	note C_, 1
	note Gs, 1
	octave 4
	note C_, 1
	rest 1
	note F_, 1
	rest 1
	note C_, 1
	octave 3
	note Gs, 1
	note F_, 1
	rest 5
	octave 4
	note Ds, 8
	note D_, 4
	octave 3
	note F_, 1
	note A_, 1
	octave 4
	note C_, 1
	note Ds, 1
	note D_, 4
	octave 3
	note D_, 4
	rest 4
	note D_, 4
	note As, 1
	octave 4
	note D_, 1
	note F_, 1
	rest 1
	octave 3
	note D_, 2
	octave 4
	note F_, 2
	note D_, 2
	octave 3
	note As, 2
	note D_, 2
	octave 4
	note D_, 2
	volume_envelope 6, 7
	note C_, 1
	note Cs, 1
	note D_, 1
	note Ds, 1
	note E_, 1
	note Ds, 1
	note D_, 1
	note Cs, 1
	note C_, 1
	rest 3
	note Ds, 4
	note_type 6, 6, 7
	note Ds, 1
	rest 1
	note Ds, 1
	rest 1
	note Ds, 1
	rest 7
	note Ds, 1
	rest 1
	note Ds, 1
	rest 1
	octave 3
	note G_, 1
	rest 3
	note G_, 1
	rest 3
	octave 4
	note C_, 8
	volume_envelope 7, 7
	note Cs, 2
	note D_, 2
	note Ds, 2
	note E_, 2
	note F_, 2
	note E_, 2
	note Ds, 2
	note D_, 2
	note Cs, 2
	rest 6
	note E_, 8
	note E_, 1
	rest 1
	note E_, 1
	rest 1
	note E_, 1
	rest 7
	note E_, 1
	rest 1
	note E_, 1
	rest 1
	octave 3
	note Gs, 1
	rest 3
	note Gs, 1
	rest 3
	octave 4
	note Cs, 8
	volume_envelope 8, 7
	note D_, 2
	note Ds, 2
	note E_, 2
	note F_, 2
	note Fs, 2
	note F_, 2
	note E_, 2
	note Ds, 2
	note D_, 2
	rest 6
	note F_, 8
	note F_, 1
	rest 1
	note F_, 1
	rest 1
	note F_, 1
	rest 7
	note F_, 1
	rest 1
	note F_, 1
	rest 1
	octave 3
	note A_, 1
	rest 3
	note A_, 1
	rest 3
	octave 4
	note D_, 8
	volume_envelope 9, 7
	note Ds, 2
	note E_, 2
	note F_, 2
	note Fs, 2
	note G_, 2
	note Fs, 2
	note F_, 2
	note E_, 2
	note Ds, 2
	rest 6
	note Fs, 8
	volume_envelope 10, 7
	note Gs, 8
	note As, 8
	volume_envelope 11, 7
	octave 5
	note D_, 8
	note D_, 2
	rest 6
	octave 4
	note As, 2
	note Fs, 2
	note Ds, 2
	octave 3
	note As, 2
	octave 4
	note Fs, 2
	note Ds, 2
	octave 3
	note As, 2
	note Fs, 2
	octave 4
	note Gs, 2
	rest 2
	note Ds, 12
	volume_envelope 11, 1
	octave 6
	note C_, 2
	note C_, 2
	note C_, 8
	note C_, 2
	note C_, 2
	note C_, 4
	note C_, 4
	note C_, 4
	note C_, 4
	volume_envelope 11, 7
	octave 4
	note As, 2
	note Fs, 2
	note Ds, 2
	octave 3
	note As, 2
	octave 4
	note Fs, 2
	note Ds, 2
	octave 3
	note As, 2
	note Fs, 2
	octave 4
	note Fs, 2
	rest 2
	note B_, 4
	note As, 4
	note Gs, 4
	note Fs, 4
	note F_, 4
	note Ds, 4
	note D_, 4
	note Ds, 8
	note Fs, 8
	octave 5
	note C_, 8
	note Ds, 8
	octave 4
	note Cs, 16
	note Cs, 2
	rest 2
	note Ds, 2
	rest 2
	note F_, 2
	rest 2
	octave 3
	note Gs, 2
	rest 2
	octave 4
	note F_, 2
	note Fs, 2
	note F_, 2
	note Ds, 2
	note F_, 2
	volume_envelope 6, 7
	note E_, 1
	note D_, 1
	note C_, 1
	octave 3
	note B_, 1
	note A_, 1
	note G_, 1
	volume_envelope 10, 1
	octave 4
	note Cs, 2
	octave 2
	note G_, 2
	note G_, 2
	octave 4
	note Cs, 2
	octave 2
	note G_, 2
	note G_, 2
	volume_envelope 11, 7
	octave 4
	note D_, 4
	sound_loop 0, gbs_kantotrainerbattle_Ch1.mainloop

gbs_kantotrainerbattle_Ch2:
	gbs_switch 1
	transpose 1, 11
	vibrato 6, 3, 6
	duty_cycle 1
	note_type 12, 13, 1
	octave 4
	note As, 4
	note As, 4
	note As, 4
	note As, 4
	note As, 4
	note As, 4
	note As, 4
	note G_, 1
	note Gs, 1
	note G_, 1
	note Fs, 1
	duty_cycle 3
	volume_envelope 6, 2
gbs_kantotrainerbattle_Ch2.loop1:
	octave 3
	note G_, 1
	note Gs, 1
	note G_, 1
	note Fs, 1
	sound_loop 14, gbs_kantotrainerbattle_Ch2.loop1
	note G_, 1
	note Gs, 1
	note G_, 1
	note F_, 1
	note Ds, 1
	note D_, 1
	note C_, 1
	octave 2
	note B_, 1
	volume_envelope 13, 7
	duty_cycle 2
	note C_, 2
	octave 3
	note C_, 1
	rest 1
	octave 2
	note C_, 1
	rest 1
	octave 1
	note As, 2
	octave 2
	note As, 1
	rest 1
	octave 1
	note As, 1
	rest 1
	note A_, 2
	octave 2
	note A_, 1
	rest 1
	octave 1
	note A_, 1
	rest 1
	note Gs, 2
	octave 2
	note Gs, 1
	rest 1
	octave 1
	note Gs, 1
	rest 1
	note G_, 1
	note B_, 1
	octave 2
	note D_, 1
	note F_, 1
	note G_, 1
	note B_, 1
	octave 3
	note D_, 1
	note F_, 1
gbs_kantotrainerbattle_Ch2.mainloop:
	note_type 12, 13, 7
	octave 2
	note C_, 1
	note C_, 1
	octave 3
	note C_, 1
	rest 1
	octave 2
	note G_, 1
	rest 1
	octave 3
	note C_, 1
	rest 1
	octave 2
	note C_, 2
	note B_, 1
	rest 1
	note G_, 1
	rest 1
	note B_, 1
	rest 1
	note C_, 2
	note As, 1
	rest 1
	note G_, 1
	rest 1
	note As, 1
	rest 1
	note C_, 2
	note A_, 1
	rest 1
	note Gs, 1
	rest 1
	octave 3
	note C_, 1
	rest 1
	octave 2
	note Cs, 1
	note Cs, 1
	note Gs, 1
	rest 1
	octave 3
	note Cs, 2
	octave 2
	note Cs, 2
	note Gs, 1
	rest 1
	octave 3
	note C_, 2
	octave 2
	note Cs, 2
	note Gs, 1
	rest 1
	note As, 2
	note Cs, 1
	note Cs, 1
	note F_, 1
	rest 1
	note Gs, 2
	octave 3
	note Cs, 1
	rest 1
	note F_, 2
	note Gs, 1
	rest 1
	note As, 2
	octave 2
	note C_, 1
	note C_, 1
	octave 3
	note C_, 1
	rest 1
	octave 2
	note G_, 1
	rest 1
	octave 3
	note C_, 1
	rest 1
	octave 2
	note C_, 2
	note B_, 1
	rest 1
	note G_, 1
	rest 1
	note B_, 1
	rest 1
	note C_, 2
	note As, 1
	rest 1
	note G_, 1
	rest 1
	note As, 1
	rest 1
	note C_, 2
	note A_, 1
	rest 1
	note F_, 1
	rest 1
	note A_, 1
	rest 1
	octave 1
	note As, 1
	note As, 1
	octave 2
	note F_, 1
	rest 1
	note As, 2
	octave 1
	note As, 2
	octave 2
	note F_, 1
	rest 1
	note A_, 2
	octave 1
	note As, 2
	octave 2
	note F_, 1
	rest 1
	note Gs, 2
	octave 1
	note As, 1
	note As, 1
	octave 2
	note F_, 1
	rest 1
	note G_, 2
	note As, 1
	rest 1
	octave 3
	note D_, 2
	note F_, 1
	rest 1
	note As, 2
	octave 1
	note F_, 2
	octave 2
	note F_, 1
	rest 1
	note C_, 1
	rest 1
	note F_, 1
	rest 1
	octave 1
	note F_, 2
	octave 2
	note E_, 1
	rest 1
	note C_, 1
	rest 1
	note E_, 1
	rest 1
	octave 1
	note F_, 2
	octave 2
	note Ds, 1
	rest 1
	note C_, 1
	rest 1
	note Ds, 1
	rest 1
	octave 1
	note F_, 2
	octave 2
	note D_, 1
	rest 1
	note Ds, 1
	note C_, 1
	octave 1
	note As, 1
	note A_, 1
	note As, 1
	rest 1
	note As, 1
	rest 1
	octave 3
	note F_, 4
	octave 1
	note As, 1
	rest 1
	note As, 1
	rest 1
	octave 3
	note Fs, 4
	octave 1
	note As, 1
	rest 1
	note As, 1
	rest 1
	octave 3
	note G_, 4
	octave 1
	note As, 1
	rest 1
	note As, 1
	rest 1
	octave 3
	note Gs, 4
	octave 1
	note F_, 2
	octave 2
	note F_, 1
	rest 1
	note C_, 1
	rest 1
	note F_, 1
	rest 1
	octave 1
	note F_, 2
	octave 2
	note E_, 1
	rest 1
	note C_, 1
	rest 1
	note E_, 1
	rest 1
	octave 1
	note F_, 2
	octave 2
	note Ds, 1
	rest 1
	note C_, 1
	rest 1
	note Ds, 1
	rest 1
	octave 1
	note F_, 2
	octave 2
	note D_, 1
	rest 1
	note Ds, 1
	note C_, 1
	octave 1
	note As, 1
	note A_, 1
	note As, 1
	rest 1
	note As, 1
	rest 1
	octave 3
	note F_, 4
	octave 1
	note As, 1
	rest 1
	note As, 1
	rest 1
	octave 3
	note Fs, 4
	octave 1
	note As, 1
	rest 1
	note As, 1
	rest 1
	octave 3
	note G_, 4
	octave 1
	note As, 1
	rest 1
	note As, 1
	rest 1
	octave 3
	note Gs, 4
	vibrato 18, 2, 4
	note_type 12, 7, 8
	octave 4
	note G_, 16
	volume_envelope 7, 7
	note G_, 16
	note_type 6, 8, 8
	note Gs, 16
	volume_envelope 8, 7
	note Gs, 15
	note G_, 1
	note Gs, 7
	note A_, 1
	note As, 3
	note A_, 1
	note Gs, 8
	note G_, 4
	note F_, 6
	rest 2
	note_type 12, 9, 8
	note A_, 16
	volume_envelope 9, 7
	note A_, 16
	volume_envelope 10, 7
	note As, 16
	volume_envelope 13, 7
	octave 5
	note D_, 8
	note F_, 8
	vibrato 4, 3, 6
	octave 2
	note As, 4
	note Ds, 4
	note C_, 1
	rest 1
	volume_envelope 13, 8
	note Gs, 6
	volume_envelope 13, 7
	note Gs, 16
	note As, 4
	note Ds, 4
	note Ds, 1
	rest 1
	octave 3
	note Ds, 14
	octave 2
	note C_, 1
	rest 1
	octave 3
	note Ds, 2
	rest 2
	note_type 6, 13, 7
	octave 2
	note C_, 1
	rest 1
	note C_, 1
	rest 1
	note C_, 2
	rest 2
	note C_, 2
	rest 2
	octave 3
	note Gs, 8
	octave 4
	note F_, 2
	note Fs, 2
	note F_, 2
	note Ds, 2
	note F_, 2
	rest 2
	note Ds, 2
	rest 2
	octave 3
	note F_, 2
	rest 2
	note Fs, 2
	rest 2
	note Gs, 2
	rest 2
	note Cs, 2
	rest 2
	note Gs, 2
	note As, 2
	note Gs, 2
	note Fs, 2
	note Gs, 2
	volume_envelope 7, 2
	note G_, 1
	note F_, 1
	note E_, 1
	note D_, 1
	note C_, 1
	octave 2
	note B_, 1
	volume_envelope 12, 1
	octave 3
	note B_, 2
	octave 1
	note Fs, 1
	rest 1
	note Fs, 1
	rest 1
	octave 3
	note B_, 2
	octave 1
	note Fs, 1
	rest 1
	note Fs, 1
	rest 1
	volume_envelope 13, 7
	octave 3
	note B_, 4
	sound_loop 0, gbs_kantotrainerbattle_Ch2.mainloop

gbs_kantotrainerbattle_Ch3:
	gbs_switch 2
	transpose 1, 11
	vibrato 18, 2, 3
	note_type 12, 1, 5
	octave 2
	note As, 1
	octave 4
	note As, 1
	octave 3
	note As, 2
	octave 2
	note A_, 1
	octave 4
	note A_, 1
	octave 3
	note A_, 2
	octave 2
	note Gs, 1
	octave 4
	note Gs, 1
	octave 3
	note Gs, 2
	octave 2
	note G_, 1
	octave 4
	note G_, 1
	octave 3
	note G_, 2
	octave 2
	note Fs, 1
	octave 4
	note Fs, 1
	octave 3
	note Fs, 2
	octave 2
	note F_, 1
	octave 4
	note F_, 1
	octave 3
	note F_, 2
	octave 2
	note E_, 1
	octave 4
	note E_, 1
	octave 3
	note E_, 2
	note D_, 1
	note F_, 1
	note B_, 1
	octave 4
	note D_, 1
	volume_envelope 1, 8
	octave 6
	note C_, 2
	octave 3
	note C_, 1
	rest 1
	note C_, 1
	rest 1
	octave 5
	note F_, 2
	octave 3
	note C_, 1
	rest 1
	note C_, 1
	rest 1
	octave 5
	note Fs, 2
	octave 4
	note C_, 1
	note Ds, 1
	octave 5
	note Ds, 2
	note F_, 2
	rest 2
	note Fs, 2
	rest 2
	octave 4
	note G_, 1
	rest 1
	note As, 1
	rest 1
	note B_, 1
	rest 1
	octave 5
	note Ds, 2
	octave 3
	note C_, 1
	rest 1
	note C_, 1
	rest 1
	octave 5
	note F_, 2
	octave 3
	note C_, 1
	rest 1
	note C_, 1
	rest 1
	octave 5
	note Fs, 2
	octave 4
	note C_, 1
	note Ds, 1
	octave 5
	note Ds, 2
	note F_, 2
	rest 2
	note Fs, 2
	rest 2
	note G_, 1
	rest 1
	note As, 1
	rest 1
	note B_, 1
	rest 1
	octave 6
	note C_, 2
	rest 4
	note D_, 2
	rest 4
	note Ds, 2
	rest 2
	note C_, 2
	note D_, 2
	rest 2
	note Ds, 2
	rest 2
	octave 5
	note G_, 2
	note As, 2
	note B_, 2
gbs_kantotrainerbattle_Ch3.mainloop:
	note_type 12, 1, 4
	octave 6
	note C_, 4
	note_type 6, 1, 4
	octave 5
	note B_, 1
	note As, 1
	note A_, 1
	note Gs, 1
	note_type 12, 1, 4
	note G_, 10
	rest 2
	note_type 6, 1, 4
	note G_, 1
	note Gs, 1
	note A_, 1
	note As, 1
	octave 6
	note C_, 6
	octave 5
	note A_, 1
	note Gs, 1
	note G_, 8
	octave 6
	note C_, 7
	octave 5
	note B_, 1
	note_type 12, 1, 4
	octave 6
	note Cs, 16
	note Cs, 8
	note F_, 4
	note Gs, 1
	note F_, 1
	note Cs, 1
	octave 5
	note Gs, 1
	octave 6
	note C_, 4
	note_type 6, 1, 4
	octave 5
	note B_, 1
	note As, 1
	note A_, 1
	note Gs, 1
	note_type 12, 1, 4
	note G_, 10
	rest 2
	note_type 6, 1, 4
	note G_, 1
	note Gs, 1
	note A_, 1
	note As, 1
	octave 6
	note C_, 6
	octave 5
	note A_, 1
	note Gs, 1
	note G_, 8
	octave 6
	note C_, 7
	octave 5
	note B_, 1
	note As, 16
	note As, 16
	note As, 13
	note B_, 1
	octave 6
	note C_, 1
	note Cs, 1
	note D_, 8
	note F_, 2
	note D_, 2
	octave 5
	note As, 2
	note A_, 2
	note_type 12, 1, 0
	note Gs, 11
	volume_envelope 1, 4
	note C_, 1
	note F_, 1
	rest 1
	note Gs, 1
	rest 1
	volume_envelope 1, 0
	octave 6
	note C_, 6
	note_type 6, 1, 0
	octave 5
	note B_, 1
	note As, 1
	note A_, 1
	note Gs, 1
	note Gs, 16
	note_type 12, 1, 0
	note As, 16
	volume_envelope 2, 5
	note D_, 1
	octave 4
	note As, 1
	note F_, 1
	note As, 1
	octave 5
	note F_, 1
	note D_, 1
	octave 4
	note As, 1
	octave 5
	note D_, 1
	note As, 1
	note F_, 1
	note D_, 1
	note F_, 1
	octave 6
	note D_, 2
	note Cs, 1
	note C_, 1
	volume_envelope 1, 0
	octave 5
	note Gs, 11
	volume_envelope 1, 4
	note C_, 1
	note F_, 1
	rest 1
	note Gs, 1
	rest 1
	volume_envelope 1, 0
	octave 6
	note C_, 7
	note_type 6, 1, 0
	note Cs, 1
	note D_, 1
	note_type 12, 1, 0
	note Ds, 8
	note D_, 12
	note Gs, 1
	note F_, 1
	volume_envelope 2, 5
	octave 5
	note As, 1
	note F_, 1
	note Gs, 1
	note Gs, 1
	note Gs, 1
	rest 1
	note As, 1
	rest 1
	note Gs, 2
	note G_, 2
	note F_, 2
	note Ds, 2
	note F_, 2
	volume_envelope 2, 4
	octave 3
	note G_, 1
	octave 4
	note C_, 1
	octave 3
	note Ds, 1
	octave 4
	note C_, 1
	octave 3
	note G_, 1
	octave 4
	note C_, 1
	octave 3
	note Ds, 1
	octave 4
	note C_, 1
	octave 3
	note G_, 1
	octave 4
	note C_, 1
	octave 3
	note Ds, 1
	octave 4
	note C_, 1
	octave 3
	note G_, 1
	octave 4
	note C_, 1
	octave 3
	note Ds, 1
	octave 4
	note C_, 1
	octave 3
	note G_, 1
	octave 4
	note C_, 1
	octave 3
	note Ds, 1
	octave 4
	note C_, 1
	octave 3
	note G_, 1
	octave 4
	note C_, 1
	octave 3
	note Ds, 1
	octave 4
	note C_, 1
	octave 3
	note G_, 1
	octave 4
	note C_, 1
	octave 3
	note Ds, 1
	octave 4
	note C_, 1
	octave 3
	note G_, 1
	octave 4
	note C_, 1
	octave 3
	note Ds, 1
	octave 4
	note C_, 1
	octave 3
	note Gs, 1
	octave 4
	note Cs, 1
	octave 3
	note E_, 1
	octave 4
	note Cs, 1
	octave 3
	note Gs, 1
	octave 4
	note Cs, 1
	octave 3
	note E_, 1
	octave 4
	note Cs, 1
	octave 3
	note Gs, 1
	octave 4
	note Cs, 1
	octave 3
	note E_, 1
	octave 4
	note Cs, 1
	octave 3
	note Gs, 1
	octave 4
	note Cs, 1
	octave 3
	note E_, 1
	octave 4
	note Cs, 1
	octave 3
	note Gs, 1
	octave 4
	note Cs, 1
	octave 3
	note E_, 1
	octave 4
	note Cs, 1
	octave 3
	note Gs, 1
	octave 4
	note Cs, 1
	octave 3
	note E_, 1
	octave 4
	note Cs, 1
	octave 3
	note Gs, 1
	octave 4
	note Cs, 1
	octave 3
	note E_, 1
	octave 4
	note Cs, 1
	octave 3
	note Gs, 1
	octave 4
	note Cs, 1
	octave 3
	note E_, 1
	octave 4
	note Cs, 1
	volume_envelope 1, 4
	octave 3
	note A_, 1
	octave 4
	note D_, 1
	octave 3
	note F_, 1
	octave 4
	note D_, 1
	octave 3
	note A_, 1
	octave 4
	note D_, 1
	octave 3
	note F_, 1
	octave 4
	note D_, 1
	octave 3
	note A_, 1
	octave 4
	note D_, 1
	octave 3
	note F_, 1
	octave 4
	note D_, 1
	octave 3
	note A_, 1
	octave 4
	note D_, 1
	octave 3
	note F_, 1
	octave 4
	note D_, 1
	volume_envelope 1, 5
	octave 3
	note A_, 1
	octave 4
	note D_, 1
	octave 3
	note F_, 1
	octave 4
	note D_, 1
	octave 3
	note A_, 1
	octave 4
	note D_, 1
	octave 3
	note F_, 1
	octave 4
	note D_, 1
	octave 3
	note A_, 1
	octave 4
	note D_, 1
	octave 3
	note F_, 1
	octave 4
	note D_, 1
	octave 3
	note A_, 1
	octave 4
	note D_, 1
	octave 3
	note F_, 1
	octave 4
	note D_, 1
	volume_envelope 1, 5
	octave 3
	note As, 1
	octave 4
	note Ds, 1
	octave 3
	note Fs, 1
	octave 4
	note Ds, 1
	octave 3
	note As, 1
	octave 4
	note Ds, 1
	octave 3
	note Fs, 1
	octave 4
	note Ds, 1
	octave 3
	note As, 1
	octave 4
	note Ds, 1
	octave 3
	note Fs, 1
	octave 4
	note Ds, 1
	octave 3
	note As, 1
	octave 4
	note Ds, 1
	octave 3
	note Fs, 1
	octave 4
	note Ds, 1
	volume_envelope 1, 4
	octave 3
	note F_, 1
	note Gs, 1
	note B_, 1
	octave 4
	note D_, 1
	octave 3
	note Gs, 1
	note B_, 1
	octave 4
	note D_, 1
	note F_, 1
	octave 3
	note B_, 1
	octave 4
	note D_, 1
	note F_, 1
	note Gs, 1
	note D_, 1
	note F_, 1
	note Gs, 1
	octave 5
	note D_, 1
	octave 6
	note Ds, 4
	octave 5
	note As, 4
	octave 6
	note Cs, 1
	rest 1
	note C_, 6
	octave 4
	note C_, 1
	note Ds, 1
	note Gs, 1
	octave 5
	note C_, 1
	note Ds, 1
	note Gs, 1
	octave 6
	note C_, 1
	note Ds, 1
	note Gs, 1
	note Ds, 1
	note C_, 1
	octave 5
	note Gs, 1
	note Ds, 1
	note C_, 1
	octave 4
	note Gs, 1
	note Ds, 1
	octave 6
	note Ds, 4
	octave 5
	note As, 4
	note B_, 1
	rest 1
	octave 6
	note Fs, 12
	note F_, 1
	note Fs, 1
	note Gs, 16
	note F_, 8
	note Cs, 1
	rest 1
	note Ds, 1
	rest 1
	note F_, 1
	rest 1
	octave 5
	note Gs, 1
	rest 1
	octave 6
	note F_, 1
	note Fs, 1
	note F_, 1
	note Ds, 1
	note F_, 1
	note_type 6, 2, 4
	note E_, 1
	note D_, 1
	note C_, 1
	octave 5
	note B_, 1
	note A_, 1
	note G_, 1
	volume_envelope 1, 4
	note G_, 2
	octave 3
	note G_, 1
	rest 1
	note G_, 1
	rest 1
	octave 5
	note G_, 2
	octave 3
	note G_, 1
	rest 1
	note G_, 1
	rest 1
	volume_envelope 1, 4
	octave 5
	note G_, 4
	sound_loop 0, gbs_kantotrainerbattle_Ch3.mainloop

	.align 4
	.global gbs_kantotrainerbattle_Header
gbs_kantotrainerbattle_Header:
	.byte 3	@ NumTrks
	.byte 0	@ NumBlks
	.byte 0	@ Priority
	.byte 0	@ Reverb

	.int voicegroup000

	.int gbs_kantotrainerbattle_Ch1
	.int gbs_kantotrainerbattle_Ch2
	.int gbs_kantotrainerbattle_Ch3
